<?xml version="1.0" standalone="no"?>
<!DOCTYPE svg PUBLIC "-//W3C//DTD SVG 20010904//EN"
 "http://www.w3.org/TR/2001/REC-SVG-20010904/DTD/svg10.dtd">
<svg version="1.0" xmlns="http://www.w3.org/2000/svg"
 width="500.000000pt" height="500.000000pt" viewBox="0 0 500.000000 500.000000"
 preserveAspectRatio="xMidYMid meet">
<metadata>
Created by potrace 1.14, written by Peter Selinger 2001-2017
</metadata>
<g transform="translate(0.000000,500.000000) scale(0.100000,-0.100000)"
fill="#000000" stroke="none">
<path d="M2225 4297 c-216 -172 -386 -410 -470 -662 -49 -145 -66 -241 -72
-412 l-6 -162 27 -11 c15 -5 46 -10 69 -10 23 0 74 -7 112 -15 92 -20 166 -35
174 -35 3 0 -8 9 -26 19 -35 22 -35 22 -60 146 -26 129 -25 481 1 575 34 126
82 245 137 340 28 49 141 204 175 239 33 35 41 51 26 51 -4 0 -43 -28 -87 -63z"/>
<path d="M2805 3982 c-52 -25 -116 -95 -146 -160 -15 -32 -30 -52 -40 -52 -9
0 -43 12 -75 27 -73 34 -189 38 -241 10 -47 -25 -104 -88 -124 -138 -21 -51
-25 -164 -8 -206 28 -70 45 -103 52 -103 4 0 7 -6 7 -14 0 -24 129 -154 198
-199 91 -60 283 -161 367 -192 40 -15 83 -25 104 -23 34 3 38 7 73 78 20 41
37 82 38 90 0 9 4 20 9 25 16 16 112 275 132 355 26 104 26 252 -1 327 -27 78
-57 118 -113 155 -63 41 -169 50 -232 20z m169 -45 c41 -23 70 -57 80 -93 6
-19 0 -21 -73 -33 -44 -6 -117 -23 -163 -36 -108 -32 -108 -32 -108 10 0 66
53 132 125 159 57 21 94 19 139 -7z m-476 -171 c15 -8 38 -26 51 -40 l24 -25
-27 -11 c-15 -5 -30 -10 -34 -10 -4 0 -62 -28 -129 -62 -68 -34 -126 -59 -129
-55 -4 4 -9 28 -11 54 -6 59 22 106 82 140 47 27 131 31 173 9z"/>
<path d="M3705 3991 c-44 -11 -110 -56 -138 -93 -48 -65 -62 -123 -61 -253 1
-147 25 -237 130 -485 9 -19 19 -44 24 -55 5 -11 25 -55 45 -99 l36 -79 60 6
c111 10 473 208 564 308 54 60 105 134 105 153 0 8 4 17 8 20 18 11 44 137 38
179 -10 67 -55 146 -105 183 -84 64 -167 68 -286 15 -37 -17 -71 -31 -75 -31
-4 0 -21 28 -38 63 -37 75 -62 105 -119 142 -45 29 -131 41 -188 26z m136 -51
c49 -14 104 -71 119 -125 16 -59 9 -67 -43 -49 -23 8 -93 26 -155 39 -62 13
-117 27 -122 30 -15 9 -12 24 11 57 38 52 109 70 190 48z m524 -194 c59 -45
77 -82 71 -145 -3 -30 -8 -57 -13 -62 -4 -4 -33 9 -64 30 -31 20 -101 57 -157
80 -56 24 -102 47 -102 52 0 10 58 55 90 68 14 6 50 9 82 8 43 -2 64 -10 93
-31z"/>
<path d="M4707 3752 c-5 -7 -3 -38 4 -70 21 -91 18 -396 -5 -517 -56 -305
-202 -572 -437 -801 -245 -238 -481 -349 -816 -384 -117 -12 -277 -3 -393 24
-51 11 -57 16 -77 57 -41 85 -64 141 -61 149 2 4 32 -6 68 -22 74 -34 171 -61
277 -77 156 -24 406 49 563 164 131 96 280 298 280 379 0 50 -39 57 -137 26
-328 -102 -899 -106 -1253 -7 -41 11 -95 22 -119 25 l-44 4 66 -73 c140 -155
220 -286 276 -455 83 -247 63 -601 -50 -884 -25 -63 -64 -135 -132 -245 -40
-65 -161 -205 -176 -205 -5 0 -12 33 -15 73 -15 195 -22 805 -10 880 6 37 3
41 -48 91 -69 67 -145 96 -273 103 -100 6 -195 -11 -268 -48 -98 -49 -156
-143 -111 -179 12 -11 30 -10 102 8 48 12 107 23 132 25 l45 2 -3 -410 c-3
-513 -16 -834 -34 -850 -38 -36 -246 -75 -397 -75 -162 0 -383 46 -402 83 -22
40 -53 1251 -33 1268 12 10 95 -2 196 -28 55 -14 69 -15 82 -4 38 32 2 105
-78 158 -167 113 -467 89 -589 -46 -36 -40 -48 -84 -29 -107 9 -10 -3 -769
-13 -872 -4 -34 -11 -62 -16 -62 -17 0 -189 205 -189 226 0 4 -6 15 -14 23
-39 45 -109 200 -147 331 -56 191 -70 490 -31 650 48 194 134 361 265 511 43
50 77 92 75 94 -9 10 -180 -130 -259 -212 -474 -492 -492 -1275 -41 -1786 251
-284 560 -429 943 -444 223 -9 405 28 674 136 11 5 38 14 60 21 39 12 151 65
230 110 110 61 301 236 388 355 28 38 54 72 57 75 14 14 110 202 130 255 4 11
12 31 18 45 9 24 25 78 42 150 14 58 29 170 34 252 2 43 7 82 11 88 3 5 33 10
66 10 246 0 568 86 852 228 93 46 262 151 277 171 3 4 19 17 35 30 89 68 205
195 280 306 22 33 43 62 46 65 3 3 30 57 61 120 90 186 134 351 143 535 6 134
-8 362 -24 378 -6 6 -11 30 -11 53 0 24 -6 47 -14 54 -8 6 -16 28 -18 48 -2
24 -6 32 -11 24z m-3527 -1988 c19 -49 6 -961 -13 -980 -4 -4 -30 18 -59 47
-29 30 -88 86 -130 126 -63 58 -80 68 -87 56 -6 -12 -11 -8 -21 18 -8 23 -14
139 -17 364 -5 275 -3 332 8 342 21 17 180 47 277 51 26 2 34 -3 42 -24z
m1190 -1 c41 -8 81 -20 89 -26 11 -10 13 -68 8 -342 -3 -225 -9 -341 -17 -364
-10 -26 -15 -30 -21 -18 -7 12 -24 2 -87 -56 -42 -39 -102 -98 -133 -130 l-57
-58 -5 38 c-4 21 -9 238 -13 483 -4 321 -3 453 5 474 l11 28 73 -7 c39 -4 106
-13 147 -22z"/>
<path d="M1026 2269 c-175 -43 -392 -285 -362 -404 11 -41 40 -30 96 38 102
120 201 202 333 271 64 34 81 62 53 85 -20 17 -74 22 -120 10z"/>
<path d="M2210 2268 c-14 -8 -26 -23 -28 -35 -3 -18 7 -28 49 -50 107 -58 196
-124 270 -200 41 -43 82 -87 90 -98 8 -11 24 -28 35 -38 20 -17 23 -17 39 -1
40 41 -21 180 -126 285 -104 105 -263 171 -329 137z"/>
<path d="M1583 1410 c-49 -11 -118 -56 -157 -101 -57 -67 -71 -123 -69 -277 2
-118 5 -140 26 -186 28 -62 80 -117 140 -148 35 -19 58 -23 132 -23 81 0 95 3
144 30 66 37 125 108 146 177 21 72 20 259 -1 324 -51 153 -206 241 -361 204z
m173 -69 c79 -36 158 -162 123 -196 -25 -25 -126 -38 -264 -32 -135 5 -178 15
-188 41 -16 41 49 137 118 177 61 35 146 39 211 10z"/>
</g>
</svg>
