<?xml version="1.0" standalone="no"?>
<!DOCTYPE svg PUBLIC "-//W3C//DTD SVG 20010904//EN"
 "http://www.w3.org/TR/2001/REC-SVG-20010904/DTD/svg10.dtd">
<svg version="1.0" xmlns="http://www.w3.org/2000/svg"
 width="700.000000pt" height="700.000000pt" viewBox="0 0 700.000000 700.000000"
 preserveAspectRatio="xMidYMid meet">
<metadata>
Created by potrace 1.14, written by Peter Selinger 2001-2017
</metadata>
<g transform="translate(0.000000,700.000000) scale(0.100000,-0.100000)"
fill="#000000" stroke="none">
<path d="M0 5865 c0 -760 3 -1135 10 -1135 6 0 18 4 28 9 157 86 445 189 814
291 40 11 87 59 118 119 10 21 39 53 62 69 24 17 49 37 57 43 24 21 125 66
166 73 23 5 54 21 76 40 20 18 58 41 85 50 57 20 198 73 299 111 154 59 246
89 375 122 119 30 144 34 215 28 47 -3 94 -1 115 5 19 6 73 15 120 21 46 5
109 17 138 25 41 12 75 14 137 9 l82 -7 -5 -26 c-4 -26 -3 -25 40 16 24 23 49
42 55 42 7 0 2 -18 -12 -42 -30 -57 -44 -222 -21 -253 19 -25 20 -45 3 -45
-17 0 -60 -47 -75 -82 -7 -16 -19 -28 -30 -28 -10 0 -33 -11 -52 -25 -39 -29
-62 -32 -80 -10 -15 18 -64 21 -58 3 3 -7 20 -16 39 -21 19 -5 38 -13 44 -18
5 -5 19 -9 32 -9 13 0 26 -7 30 -16 3 -9 20 -22 37 -30 17 -7 25 -13 18 -14
-10 0 -10 -5 -2 -20 6 -11 15 -18 21 -15 5 4 9 -1 9 -9 0 -18 25 -22 35 -6 3
6 15 10 26 10 10 0 19 -4 19 -10 0 -5 11 -10 24 -10 14 0 28 -4 31 -10 3 -5
18 -10 32 -10 23 0 24 -2 12 -17 -13 -15 -12 -15 7 -5 12 6 26 7 35 1 7 -5 24
-9 37 -9 13 0 21 -4 17 -9 -9 -16 105 -27 135 -14 23 10 54 9 62 -1 4 -6 12
-6 20 1 22 17 56 22 62 8 2 -7 34 -15 76 -19 77 -8 98 -3 59 14 -23 9 -23 10
6 8 17 0 37 2 45 5 8 3 28 7 44 9 23 2 31 9 37 31 8 28 -7 39 -17 12 -4 -8
-15 -15 -27 -15 -19 0 -20 1 -2 20 16 17 16 20 2 20 -8 0 -22 -7 -31 -15 -29
-30 -78 -12 -69 26 3 11 18 21 38 25 22 4 35 13 38 26 5 16 12 20 34 16 21 -3
34 2 48 18 15 17 26 21 49 17 20 -4 27 -3 22 5 -4 6 -21 14 -39 17 -21 4 -44
20 -65 46 l-33 39 48 53 c68 72 82 98 107 191 l22 81 50 -3 c127 -7 208 -25
262 -60 61 -41 86 -42 169 -11 55 21 67 22 115 12 42 -9 60 -8 87 3 37 15 185
12 297 -7 l62 -11 66 66 c59 57 72 66 104 66 21 0 58 -11 84 -25 26 -14 61
-25 78 -25 17 0 45 -7 62 -16 38 -20 232 -215 265 -267 13 -21 32 -40 41 -43
48 -16 80 -41 156 -124 16 -18 45 -39 65 -48 20 -9 54 -28 76 -43 22 -15 81
-47 130 -71 50 -25 104 -52 120 -61 17 -9 87 -32 155 -52 177 -51 370 -118
553 -192 87 -34 160 -63 163 -63 2 0 4 515 4 1145 l0 1145 -3500 0 -3500 0 0
-1135z m3488 152 c10 -8 10 -13 0 -25 -11 -13 -10 -14 12 -8 58 18 80 18 108
0 15 -11 40 -25 56 -31 18 -8 26 -18 23 -27 -3 -8 -1 -16 5 -18 8 -3 8 -9 0
-24 -6 -10 -12 -14 -12 -9 0 6 -9 25 -20 42 -13 22 -24 31 -35 26 -13 -5 -9
-14 23 -47 26 -26 42 -54 46 -78 9 -48 -3 -48 -41 0 -42 52 -141 84 -128 42 5
-14 2 -20 -10 -20 -12 0 -16 7 -13 28 3 27 3 27 -67 30 -38 2 -100 -1 -136 -8
-107 -18 -137 -19 -143 -4 -4 10 -17 12 -52 7 -39 -5 -46 -4 -39 8 16 27 49
59 62 59 7 0 13 5 13 11 0 13 62 39 95 39 15 0 33 7 42 15 22 23 34 8 18 -22
-8 -15 -13 -28 -12 -30 2 -1 19 2 39 7 25 7 38 17 42 35 9 36 75 38 124 2z
m-318 -176 c0 -17 -85 -90 -94 -81 -13 13 26 73 54 81 36 10 40 10 40 0z m280
-6 c0 -8 -4 -15 -9 -15 -13 0 -22 16 -14 24 11 11 23 6 23 -9z m130 -25 c0 -5
-4 -10 -10 -10 -5 0 -10 5 -10 10 0 6 5 10 10 10 6 0 10 -4 10 -10z m207 -67
c-2 -23 -12 -54 -21 -69 -15 -21 -20 -23 -33 -13 -18 16 -11 77 14 120 24 41
47 20 40 -38z m-67 2 c0 -8 -7 -15 -15 -15 -8 0 -15 7 -15 15 0 8 7 15 15 15
8 0 15 -7 15 -15z m-325 -55 c-3 -5 -15 -10 -25 -10 -14 0 -18 -5 -13 -17 5
-17 5 -17 -13 0 -16 15 -17 19 -4 27 20 13 63 13 55 0z m285 -10 c0 -25 -30
-79 -50 -90 -12 -6 -23 -10 -24 -8 -8 9 46 108 59 108 8 0 15 -5 15 -10z m-30
-355 c0 -8 -7 -15 -15 -15 -16 0 -20 12 -8 23 11 12 23 8 23 -8z m-50 -5 c-8
-5 -26 -9 -40 -9 -23 0 -23 1 -5 9 11 5 29 9 40 9 17 1 17 -1 5 -9z m60 -35
c18 -21 5 -45 -24 -45 -18 0 -24 4 -21 15 3 8 7 22 10 30 6 19 19 19 35 0z
m-590 -25 c0 -5 -2 -10 -4 -10 -3 0 -8 5 -11 10 -3 6 -1 10 4 10 6 0 11 -4 11
-10z m39 -36 c2 -2 2 -7 -2 -10 -10 -10 -77 6 -77 18 0 9 68 3 79 -8z m254 -1
c-7 -2 -19 -2 -25 0 -7 3 -2 5 12 5 14 0 19 -2 13 -5z"/>
<path d="M3370 6005 c0 -8 7 -15 15 -15 8 0 15 -4 15 -9 0 -6 12 -3 28 4 36
19 31 27 -18 31 -30 3 -40 0 -40 -11z"/>
<path d="M3595 5960 c3 -5 10 -10 16 -10 5 0 9 5 9 10 0 6 -7 10 -16 10 -8 0
-12 -4 -9 -10z"/>
<path d="M3428 5953 c7 -3 16 -2 19 1 4 3 -2 6 -13 5 -11 0 -14 -3 -6 -6z"/>
<path d="M2269 5546 c-15 -31 -11 -37 19 -29 25 6 29 25 7 43 -12 10 -17 7
-26 -14z"/>
<path d="M2810 5469 c0 -5 5 -7 10 -4 6 3 10 8 10 11 0 2 -4 4 -10 4 -5 0 -10
-5 -10 -11z"/>
<path d="M3905 5452 l-50 -25 34 -9 c28 -8 37 -6 53 11 10 12 26 21 34 21 19
0 13 25 -7 26 -8 1 -36 -10 -64 -24z"/>
<path d="M4094 5435 c26 -19 42 -19 26 0 -7 8 -20 15 -29 15 -13 -1 -13 -3 3
-15z"/>
<path d="M4413 5418 c-42 -20 -25 -30 40 -23 69 8 80 12 72 26 -8 12 -85 10
-112 -3z"/>
<path d="M2662 5404 c-12 -8 -22 -22 -22 -31 0 -12 7 -14 33 -9 38 7 64 35 44
48 -18 11 -30 10 -55 -8z"/>
<path d="M4363 5353 c-4 -10 -13 -23 -21 -28 -20 -15 -5 -65 19 -65 21 0 25
20 9 36 -15 15 -3 41 21 47 25 7 25 27 -1 27 -11 0 -24 -8 -27 -17z"/>
<path d="M4873 5263 c15 -2 39 -2 55 0 15 2 2 4 -28 4 -30 0 -43 -2 -27 -4z"/>
<path d="M5358 5234 c-11 -10 3 -34 19 -34 8 0 13 7 11 17 -3 18 -20 27 -30
17z"/>
<path d="M1495 5210 c-3 -5 1 -10 9 -10 9 0 16 5 16 10 0 6 -4 10 -9 10 -6 0
-13 -4 -16 -10z"/>
<path d="M5040 5181 c0 -10 30 -24 37 -17 3 2 -5 9 -16 16 -12 6 -21 7 -21 1z"/>
<path d="M5247 5175 c6 -18 34 -16 41 3 2 7 -6 12 -22 12 -19 0 -24 -4 -19
-15z"/>
<path d="M4888 5143 c7 -3 16 -2 19 1 4 3 -2 6 -13 5 -11 0 -14 -3 -6 -6z"/>
<path d="M5325 5060 c-3 -5 1 -10 9 -10 9 0 16 5 16 10 0 6 -4 10 -9 10 -6 0
-13 -4 -16 -10z"/>
<path d="M2826 5050 c-19 -6 -19 -7 2 -12 12 -4 24 -2 27 2 8 13 -8 18 -29 10z"/>
<path d="M3690 5051 c0 -5 -10 -12 -22 -14 -13 -2 0 -5 27 -5 46 -1 48 0 31
13 -23 17 -36 19 -36 6z"/>
<path d="M5250 5051 c0 -4 11 -6 25 -3 14 2 25 6 25 8 0 2 -11 4 -25 4 -14 0
-25 -4 -25 -9z"/>
<path d="M2857 5023 c-13 -15 -13 -21 -3 -36 16 -21 78 -14 69 9 -3 8 -11 14
-19 14 -8 0 -11 6 -8 15 8 21 -19 19 -39 -2z"/>
<path d="M3095 5020 c-10 -11 -16 -22 -13 -25 5 -6 48 29 48 39 0 12 -17 6
-35 -14z"/>
<path d="M1720 5001 c-14 -27 -13 -41 5 -41 10 0 15 10 15 30 0 35 -5 38 -20
11z"/>
<path d="M3795 5010 c3 -5 8 -10 11 -10 2 0 4 5 4 10 0 6 -5 10 -11 10 -5 0
-7 -4 -4 -10z"/>
<path d="M2451 5003 c-10 -4 -5 -10 15 -19 19 -8 23 -13 12 -13 -20 -1 -25
-31 -5 -31 6 0 25 7 41 15 15 8 36 15 45 15 10 0 26 6 36 14 18 13 17 14 -17
14 -20 0 -54 2 -75 5 -21 3 -44 3 -52 0z"/>
<path d="M2945 4990 c-3 -5 -1 -10 4 -10 6 0 11 5 11 10 0 6 -2 10 -4 10 -3 0
-8 -4 -11 -10z"/>
<path d="M3563 4993 c-18 -7 -16 -43 2 -43 18 0 19 -12 3 -28 -15 -15 -8 -15
26 -2 35 13 33 29 -5 42 -22 8 -27 13 -18 19 16 9 9 18 -8 12z"/>
<path d="M1624 4918 c-27 -25 -41 -45 -35 -51 5 -5 18 -3 33 7 13 8 39 16 58
17 19 2 40 7 47 12 7 5 18 6 25 2 7 -4 4 1 -6 9 -25 20 -56 21 -56 1 0 -8 -9
-15 -20 -15 -11 0 -20 5 -20 10 0 6 5 10 11 10 5 0 7 5 4 10 -3 6 4 14 17 19
18 8 19 10 5 10 -9 1 -38 -18 -63 -41z"/>
<path d="M1768 4953 c6 -2 18 -2 25 0 6 3 1 5 -13 5 -14 0 -19 -2 -12 -5z"/>
<path d="M3365 4930 c-3 -5 -1 -10 4 -10 6 0 11 5 11 10 0 6 -2 10 -4 10 -3 0
-8 -4 -11 -10z"/>
<path d="M1975 4920 c3 -5 10 -10 16 -10 5 0 9 5 9 10 0 6 -7 10 -16 10 -8 0
-12 -4 -9 -10z"/>
<path d="M3468 4912 c-10 -2 -18 -8 -18 -13 0 -14 36 -11 49 4 11 15 4 17 -31
9z"/>
<path d="M1915 4900 c3 -5 10 -10 16 -10 5 0 9 5 9 10 0 6 -7 10 -16 10 -8 0
-12 -4 -9 -10z"/>
<path d="M1822 4870 c-11 -18 -10 -20 8 -20 13 0 20 7 20 20 0 11 -3 20 -8 20
-4 0 -13 -9 -20 -20z"/>
<path d="M1935 4880 c-3 -4 1 -13 9 -19 10 -8 17 -7 29 7 14 16 14 17 -9 18
-13 1 -26 -2 -29 -6z"/>
<path d="M4025 4870 c-3 -5 -2 -10 4 -10 5 0 13 5 16 10 3 6 2 10 -4 10 -5 0
-13 -4 -16 -10z"/>
<path d="M700 4826 c-271 -93 -452 -168 -492 -204 -44 -38 -6 -72 97 -86 28
-4 82 -15 120 -25 39 -11 110 -24 160 -31 75 -11 94 -17 115 -39 l25 -26 168
3 c167 4 169 4 162 26 -4 11 -9 32 -12 46 -3 14 -21 43 -40 64 -18 22 -33 46
-33 53 0 7 -19 34 -42 60 -41 44 -43 49 -48 122 -5 72 -6 76 -30 78 -14 1 -81
-17 -150 -41z"/>
<path d="M4485 4860 c-3 -5 -1 -10 4 -10 6 0 11 5 11 10 0 6 -2 10 -4 10 -3 0
-8 -4 -11 -10z"/>
<path d="M4456 4833 c-12 -12 -5 -23 14 -23 11 0 20 4 20 9 0 11 -26 22 -34
14z"/>
<path d="M1640 4821 c-14 -3 -26 -11 -27 -17 -2 -13 31 -11 49 3 7 6 24 13 38
16 22 4 21 4 -5 4 -16 1 -41 -2 -55 -6z"/>
<path d="M1890 4804 c-16 -17 -20 -25 -10 -23 8 1 23 -1 33 -6 22 -9 37 3 17
15 -12 8 -12 10 3 16 9 3 24 4 32 1 8 -4 17 -2 20 3 4 6 -2 10 -12 10 -10 0
-27 2 -38 5 -13 3 -29 -5 -45 -21z"/>
<path d="M4625 4820 c-3 -5 1 -10 9 -10 8 0 18 5 21 10 3 6 -1 10 -9 10 -8 0
-18 -4 -21 -10z"/>
<path d="M6179 4808 c-26 -49 -76 -100 -121 -123 -26 -14 -80 -56 -120 -95
-40 -39 -81 -73 -90 -76 -15 -4 -16 -24 -13 -192 l3 -187 74 2 c40 1 129 4
198 8 110 7 128 10 152 30 22 18 44 24 105 29 43 3 139 13 213 22 218 26 289
28 352 10 31 -9 59 -16 62 -16 3 0 6 67 6 150 l0 150 -47 24 c-27 13 -91 40
-143 61 -52 20 -138 54 -190 75 -78 31 -415 150 -426 150 -2 0 -9 -10 -15 -22z"/>
<path d="M1515 4810 c3 -5 15 -10 25 -10 10 0 21 -4 25 -10 3 -5 13 -6 22 -3
14 6 14 8 -3 20 -21 15 -78 18 -69 3z"/>
<path d="M2493 4791 c-7 -11 -26 -22 -43 -26 -16 -4 -28 -11 -24 -16 3 -5 23
0 45 13 47 26 69 48 48 48 -8 0 -20 -9 -26 -19z"/>
<path d="M1685 4790 c4 -6 11 -8 16 -5 14 9 11 15 -7 15 -8 0 -12 -5 -9 -10z"/>
<path d="M2080 4780 c-9 -6 -10 -10 -3 -10 6 0 15 5 18 10 8 12 4 12 -15 0z"/>
<path d="M2350 4784 c0 -13 18 -39 24 -34 2 3 -2 14 -10 24 -8 11 -14 16 -14
10z"/>
<path d="M1968 4763 c-22 -5 -23 -19 -3 -27 8 -3 15 -13 15 -21 0 -9 5 -13 10
-10 6 4 8 15 5 26 -4 10 -2 19 3 19 6 0 13 -11 16 -24 4 -18 11 -23 26 -19 12
3 20 0 20 -7 0 -9 5 -9 18 3 12 11 22 13 35 6 19 -11 41 -3 32 11 -3 5 -12 7
-20 3 -9 -3 -22 0 -30 7 -8 7 -15 9 -15 4 0 -5 -7 -1 -14 8 -13 17 -65 28 -98
21z"/>
<path d="M4075 4740 c-3 -5 -2 -10 4 -10 5 0 13 5 16 10 3 6 2 10 -4 10 -5 0
-13 -4 -16 -10z"/>
<path d="M5409 4741 c7 -5 17 -15 22 -22 6 -10 9 -8 9 9 0 16 -6 22 -22 22
-17 0 -19 -3 -9 -9z"/>
<path d="M2215 4699 c-11 -17 1 -21 15 -4 8 9 8 15 2 15 -6 0 -14 -5 -17 -11z"/>
<path d="M1100 4665 c0 -5 5 -17 10 -25 5 -8 10 -10 10 -5 0 6 -5 17 -10 25
-5 8 -10 11 -10 5z"/>
<path d="M1685 4660 c-8 -13 15 -13 35 0 12 8 11 10 -7 10 -12 0 -25 -4 -28
-10z"/>
<path d="M5410 4620 c0 -6 7 -10 15 -10 8 0 15 2 15 4 0 2 -7 6 -15 10 -8 3
-15 1 -15 -4z"/>
<path d="M5177 4592 c-22 -10 -26 -18 -21 -34 5 -16 3 -20 -8 -15 -35 13 -126
19 -132 8 -4 -6 -17 -11 -30 -11 -13 0 -43 -13 -67 -30 -42 -28 -97 -41 -84
-20 3 6 -1 7 -10 3 -12 -4 -13 -8 -5 -13 15 -9 -24 -37 -111 -79 -75 -35 -89
-38 -89 -16 0 8 -9 15 -20 15 -21 0 -27 -15 -10 -25 5 -3 7 -19 4 -34 -5 -24
1 -37 36 -75 41 -44 70 -59 70 -34 0 6 -7 19 -16 29 -15 17 -15 19 10 30 14 7
26 18 26 25 0 7 6 17 14 21 8 4 14 17 13 28 -2 18 3 20 44 17 27 -2 62 3 84
12 20 9 55 16 77 16 31 0 41 4 45 20 4 13 14 20 30 20 14 0 39 7 56 15 18 8
61 19 96 24 58 9 101 32 101 53 0 4 -11 8 -25 8 -16 0 -25 6 -25 15 0 8 9 15
20 15 11 0 20 -4 20 -10 0 -16 56 -11 71 6 10 13 10 17 -1 24 -21 13 -132 8
-163 -8z m-456 -227 c0 -5 -9 -11 -21 -13 -20 -3 -27 8 -13 22 10 9 34 3 34
-9z"/>
<path d="M2008 4573 c6 -2 18 -2 25 0 6 3 1 5 -13 5 -14 0 -19 -2 -12 -5z"/>
<path d="M1715 4550 c4 -6 10 -8 15 -5 4 3 13 -1 19 -9 9 -11 9 -15 -1 -19
-10 -4 -11 -7 0 -18 6 -7 12 -23 12 -35 0 -12 -6 -25 -12 -27 -8 -3 -6 -6 5
-6 9 -1 17 4 17 9 0 6 11 10 25 10 17 0 25 5 25 18 0 21 -18 41 -34 38 -6 -2
-8 -1 -3 1 17 10 5 30 -26 41 -41 15 -50 15 -42 2z"/>
<path d="M1225 4540 c3 -5 10 -10 16 -10 5 0 9 5 9 10 0 6 -7 10 -16 10 -8 0
-12 -4 -9 -10z"/>
<path d="M2201 4510 c-21 -12 -44 -17 -58 -13 -19 4 -25 1 -30 -16 -3 -11 -12
-21 -21 -21 -9 0 -33 -17 -54 -37 -43 -42 -53 -25 -11 19 14 15 23 31 19 35
-4 4 -10 3 -14 -3 -4 -6 -19 -14 -33 -17 -36 -9 -76 -52 -76 -82 0 -20 6 -26
32 -31 21 -4 36 -14 44 -30 13 -30 24 -30 56 -2 28 25 32 38 10 38 -8 0 -15 4
-15 8 0 14 23 32 42 32 9 0 35 18 57 40 22 22 42 36 46 31 3 -6 15 -7 28 -2
12 5 62 9 110 9 91 0 109 4 90 23 -7 7 -22 7 -47 1 -22 -7 -48 -7 -67 -2 -17
5 -44 7 -60 3 -30 -6 -37 5 -17 25 16 16 9 14 -31 -8z"/>
<path d="M4005 4510 c-3 -5 -2 -10 4 -10 5 0 13 5 16 10 3 6 2 10 -4 10 -5 0
-13 -4 -16 -10z"/>
<path d="M2985 4477 c-4 -10 -5 -21 -1 -24 10 -10 18 4 13 24 -4 17 -4 17 -12
0z"/>
<path d="M1388 4468 c5 -5 16 -8 23 -6 8 3 3 7 -10 11 -17 4 -21 3 -13 -5z"/>
<path d="M2890 4465 c12 -15 30 -12 30 6 0 5 -10 9 -21 9 -18 0 -19 -2 -9 -15z"/>
<path d="M5695 4414 c-52 -39 -104 -63 -142 -64 -22 0 -87 -34 -112 -58 -7 -7
-26 -16 -42 -19 -15 -3 -30 -11 -33 -19 -3 -8 -19 -14 -36 -14 -17 0 -53 -11
-81 -26 -42 -21 -48 -28 -39 -40 16 -18 55 -18 74 1 8 8 22 15 32 15 15 0 15
-3 -4 -23 -15 -16 -35 -24 -64 -26 -24 -1 -44 -6 -46 -11 -2 -5 -13 1 -25 14
-40 41 -58 40 -167 -12 -25 -12 -50 -22 -56 -22 -6 0 -19 -10 -30 -21 -33 -38
-89 -67 -140 -74 -86 -11 -146 -29 -152 -45 -3 -8 -10 -18 -16 -23 -16 -11 23
-37 48 -32 12 2 31 4 44 4 16 1 22 6 20 19 -2 11 5 18 20 20 18 3 25 -3 33
-27 6 -17 17 -31 25 -31 8 0 14 -5 14 -10 0 -6 10 -15 23 -20 17 -7 18 -9 4
-9 -9 -1 -26 5 -37 11 -16 11 -22 9 -34 -7 -8 -11 -12 -23 -10 -27 8 -13 94
-9 94 3 0 7 8 9 23 4 36 -11 58 -7 81 14 12 12 29 21 38 21 11 0 15 7 12 23
-2 12 -2 16 2 10 7 -16 40 -17 50 -2 4 7 21 9 41 6 46 -8 173 21 173 39 0 7
-8 17 -17 23 -10 5 -14 13 -10 17 4 4 13 2 19 -4 15 -15 42 -16 33 -2 -10 16
23 60 44 60 10 0 30 12 44 26 22 22 31 24 64 18 21 -4 35 -3 31 1 -4 4 0 14
10 21 12 9 19 9 24 1 5 -8 10 -7 20 1 9 7 18 8 24 2 5 -5 19 -3 33 4 24 13 24
13 -13 20 -40 8 -48 20 -13 24 12 1 31 3 42 5 11 1 24 8 28 15 5 7 12 10 17 7
8 -5 60 57 60 74 0 5 8 16 18 23 19 15 27 86 14 132 l-8 28 -49 -38z m-9 -59
c-1 -27 -11 -33 -19 -11 -3 7 0 19 6 25 15 15 15 15 13 -14z m-56 -34 c0 -6
-4 -13 -10 -16 -5 -3 -10 1 -10 9 0 9 5 16 10 16 6 0 10 -4 10 -9z m-47 -61
c-6 -24 -23 -37 -23 -18 0 12 18 38 26 38 1 0 0 -9 -3 -20z m87 -40 c0 -5 -4
-10 -10 -10 -5 0 -10 5 -10 10 0 6 5 10 10 10 6 0 10 -4 10 -10z m-190 -60 c0
-5 -4 -10 -10 -10 -5 0 -10 5 -10 10 0 6 5 10 10 10 6 0 10 -4 10 -10z m-560
-280 c0 -5 -4 -10 -10 -10 -5 0 -10 5 -10 10 0 6 5 10 10 10 6 0 10 -4 10 -10z"/>
<path d="M2703 4425 c-3 -9 -3 -18 0 -21 9 -9 27 6 27 22 0 19 -19 18 -27 -1z"/>
<path d="M2550 4416 c0 -8 5 -18 10 -21 6 -3 10 1 10 9 0 8 -4 18 -10 21 -5 3
-10 -1 -10 -9z"/>
<path d="M1530 4387 c0 -4 7 -10 15 -13 8 -3 17 -14 20 -24 8 -25 55 -33 55
-10 0 10 -7 21 -16 24 -12 5 -14 9 -5 20 9 11 4 13 -29 12 -22 0 -40 -4 -40
-9z"/>
<path d="M1756 4335 c-15 -8 -35 -15 -42 -15 -8 0 -17 -6 -20 -14 -3 -8 -19
-19 -35 -25 -16 -5 -29 -16 -29 -23 0 -19 56 -78 74 -78 9 0 25 -9 37 -21 14
-14 36 -21 69 -23 39 -2 53 -8 73 -32 29 -34 41 -27 40 21 -1 24 3 35 13 35 8
0 14 -7 14 -15 0 -8 6 -15 14 -15 7 0 19 -7 26 -15 19 -22 30 -6 35 48 4 44
-2 57 -19 40 -11 -12 -40 -12 -53 -1 -19 16 -16 28 8 28 14 0 19 5 17 18 -2
12 -13 17 -35 17 -17 0 -35 3 -39 8 -4 4 -22 7 -41 7 -25 0 -33 4 -33 18 0 16
-28 52 -41 52 -2 0 -17 -7 -33 -15z"/>
<path d="M4385 4320 c3 -5 10 -10 16 -10 5 0 9 5 9 10 0 6 -7 10 -16 10 -8 0
-12 -4 -9 -10z"/>
<path d="M4315 4303 c-11 -3 -27 -14 -36 -24 -9 -11 -25 -19 -35 -19 -26 0
-64 -28 -64 -46 0 -45 -79 -59 -135 -24 -36 22 -45 20 -139 -26 -20 -10 -32
-12 -40 -4 -13 13 -46 13 -46 0 0 -7 -52 -46 -88 -66 -1 0 0 -8 4 -17 4 -11
18 -17 38 -18 17 0 54 -1 81 -2 39 -1 69 7 131 36 52 23 96 37 122 37 31 0 44
5 52 20 6 11 19 20 29 20 38 0 80 22 83 43 2 14 11 23 24 25 27 4 68 47 59 61
-7 12 -8 12 -40 4z"/>
<path d="M2496 4274 c-5 -14 -4 -15 9 -4 17 14 19 20 6 20 -5 0 -12 -7 -15
-16z"/>
<path d="M1166 4225 c-20 -24 -40 -55 -46 -70 -13 -34 -13 -105 0 -105 6 0 10
-8 10 -19 0 -10 7 -24 15 -31 8 -7 15 -23 15 -36 0 -25 28 -39 59 -29 13 4 20
-1 25 -17 6 -17 9 -19 13 -8 10 27 24 39 39 33 19 -7 18 -21 -3 -26 -11 -2 -3
-7 20 -11 20 -5 37 -14 37 -21 0 -8 17 -16 40 -20 25 -4 41 -13 45 -25 10 -31
97 -92 122 -85 12 3 25 0 28 -5 4 -6 15 -8 26 -5 29 9 91 -32 84 -55 -11 -35
34 -53 110 -45 66 7 109 1 300 -47 170 -42 148 -39 400 -53 66 -3 136 -10 155
-14 19 -5 118 -7 220 -5 102 2 237 4 301 3 88 -1 124 3 147 15 17 9 53 16 79
16 68 0 86 15 27 24 -26 3 -62 6 -80 6 -27 0 -34 4 -34 19 0 11 5 23 11 27 22
13 94 12 128 -2 18 -8 48 -14 65 -14 18 0 37 -5 44 -12 7 -7 31 -14 55 -15 44
-3 220 23 247 37 8 4 33 11 55 15 47 8 65 21 65 45 0 31 29 31 65 -2 33 -28
37 -29 53 -15 9 9 42 19 72 23 30 4 63 11 73 16 9 5 45 13 80 17 83 12 120 21
130 30 5 5 28 6 51 4 26 -3 53 0 67 8 29 16 28 16 107 17 53 2 62 5 62 20 0
25 -33 38 -104 41 -33 1 -63 4 -68 7 -12 8 -9 46 6 76 8 15 12 29 8 31 -25 14
-214 -30 -362 -83 -63 -23 -137 -46 -165 -52 -27 -5 -84 -21 -125 -35 -92 -31
-195 -48 -275 -45 -33 1 -132 4 -219 8 -198 7 -351 -7 -381 -36 -26 -24 -48
-25 -69 -4 -12 12 -23 13 -50 5 -20 -5 -70 -7 -113 -4 -54 3 -100 0 -148 -12
-88 -21 -159 -19 -231 5 -32 11 -76 20 -98 20 -64 0 -163 27 -228 62 -56 30
-61 31 -109 20 -72 -17 -124 -15 -167 7 -20 10 -63 21 -94 24 -41 4 -70 14
-100 35 -58 40 -157 102 -164 102 -3 0 -38 23 -78 50 -59 42 -82 67 -130 140
-31 48 -63 91 -71 94 -8 3 -28 -13 -49 -39z m2680 -516 c10 -17 -13 -36 -27
-22 -12 12 -4 33 11 33 5 0 12 -5 16 -11z"/>
<path d="M3490 4150 c0 -5 5 -10 10 -10 6 0 10 5 10 10 0 6 -4 10 -10 10 -5 0
-10 -4 -10 -10z"/>
<path d="M3615 4128 c-27 -15 -45 -38 -45 -60 0 -15 8 -18 49 -18 42 0 53 4
70 26 28 35 27 54 -3 54 -13 0 -30 2 -38 5 -7 2 -22 0 -33 -7z"/>
<path d="M3445 4110 c-22 -25 -41 -26 -54 -3 -9 17 -12 17 -65 -1 -45 -16 -56
-23 -56 -41 0 -20 7 -23 53 -29 28 -3 70 -9 92 -12 22 -3 53 -1 68 5 l28 11
-22 29 c-12 16 -19 37 -16 45 9 22 -6 20 -28 -4z"/>
<path d="M2320 4064 c-12 -25 -20 -47 -17 -50 2 -2 10 9 17 25 7 17 18 36 26
42 16 13 19 29 5 29 -5 0 -19 -20 -31 -46z"/>
<path d="M2959 4058 c-8 -18 -25 -38 -37 -44 -29 -14 -23 -19 51 -34 94 -19
115 5 51 58 -20 17 -33 35 -30 41 4 6 1 11 -7 11 -7 0 -20 -15 -28 -32z"/>
<path d="M5440 4070 c-11 -7 -11 -11 -1 -24 16 -20 41 -21 41 -2 0 21 -23 36
-40 26z"/>
<path d="M2798 4043 c-8 -18 -22 -29 -38 -31 -40 -5 -81 -24 -77 -36 2 -6 31
-12 68 -13 50 -1 71 3 95 20 l32 21 -27 33 c-14 18 -29 33 -33 33 -4 0 -13
-12 -20 -27z"/>
<path d="M2565 4000 c3 -5 13 -10 21 -10 8 0 14 5 14 10 0 6 -9 10 -21 10 -11
0 -17 -4 -14 -10z"/>
<path d="M1015 3933 c-113 -43 -145 -52 -195 -59 -30 -3 -60 -10 -66 -15 -27
-22 -165 -69 -219 -75 -35 -4 -65 -13 -71 -22 -7 -10 -33 -17 -71 -20 -70 -5
-139 13 -258 65 -44 19 -92 39 -108 43 l-27 9 2 -551 3 -550 90 -33 c50 -18
106 -38 125 -45 19 -7 51 -20 70 -30 19 -10 51 -21 70 -25 19 -4 54 -18 77
-31 23 -13 55 -24 71 -24 18 0 32 -6 36 -15 3 -9 23 -23 43 -31 72 -30 278
-136 295 -152 20 -20 25 -97 10 -157 -20 -79 -38 -114 -83 -156 -25 -24 -52
-55 -61 -69 -10 -16 -32 -30 -64 -38 -73 -20 -124 -43 -124 -57 0 -6 -18 -18
-40 -25 -22 -7 -46 -23 -54 -35 -21 -32 -116 -40 -205 -19 -36 9 -110 18 -163
20 l-98 3 0 -258 0 -257 28 -11 c15 -6 85 -38 157 -71 743 -344 1717 -577
2760 -662 314 -26 1019 -31 1295 -10 80 6 208 15 285 20 166 10 270 27 286 46
15 18 21 13 -84 68 -96 50 -111 53 -174 31 -24 -8 -95 -16 -170 -19 -70 -2
-150 -7 -176 -11 -36 -6 -57 -3 -87 10 -33 15 -56 17 -139 12 -55 -3 -116 -13
-136 -22 -21 -8 -65 -15 -99 -15 -33 -1 -81 -5 -106 -10 -32 -6 -56 -4 -85 6
-22 7 -63 14 -91 14 -28 0 -73 7 -100 15 -27 8 -66 15 -86 15 -20 0 -39 4 -42
9 -4 5 -9 36 -12 69 -6 52 -4 64 15 88 18 22 20 36 15 69 -4 33 -2 43 10 48
20 8 45 66 63 147 17 80 46 124 98 150 22 11 47 24 55 29 8 5 48 17 87 26 64
15 109 17 365 11 427 -8 704 -23 781 -40 37 -8 96 -18 130 -21 115 -12 181
-26 205 -46 14 -10 30 -19 37 -19 20 0 47 -37 44 -62 -1 -13 1 -38 5 -56 7
-27 2 -46 -28 -107 -21 -42 -36 -89 -36 -109 0 -69 -22 -139 -54 -173 -17 -18
-38 -33 -47 -33 -9 0 -28 -10 -43 -21 -39 -31 -20 -46 36 -29 24 7 59 12 78
11 99 -8 181 2 460 58 568 113 1063 250 1400 388 l95 39 3 242 2 242 -30 0
c-33 0 -56 -30 -30 -38 8 -3 -10 -16 -40 -29 -36 -16 -57 -20 -64 -13 -5 5
-18 10 -28 10 -10 0 -18 7 -18 15 0 17 -11 19 -25 6 -6 -5 -28 -12 -50 -15
-31 -5 -37 -4 -25 4 12 9 10 10 -10 5 -14 -4 -34 -9 -45 -12 -13 -3 -31 5 -49
22 -16 15 -35 24 -43 21 -8 -3 -39 -9 -69 -12 -53 -7 -54 -6 -91 34 -32 34
-46 41 -91 47 -41 5 -62 15 -90 41 -20 19 -39 34 -42 34 -3 0 -31 24 -62 53
-80 74 -88 132 -26 201 17 18 19 28 22 81 1 13 9 21 24 23 12 2 22 9 22 17 0
16 66 75 84 75 8 0 33 11 57 24 24 14 46 23 51 20 10 -6 61 20 78 41 24 29
131 97 195 125 33 14 78 38 100 52 59 40 120 58 213 65 l82 6 0 68 c0 54 -3
69 -15 69 -8 0 -29 7 -48 16 -28 13 -34 22 -34 48 0 17 4 36 9 43 5 7 7 17 4
22 -10 16 -53 -8 -60 -32 -4 -18 -10 -19 -67 -13 -63 6 -89 18 -89 41 0 19 32
43 63 47 36 5 47 22 47 74 0 50 -28 79 -94 99 -44 13 -49 13 -96 -11 -47 -23
-50 -28 -50 -63 0 -29 8 -46 35 -75 19 -21 35 -44 35 -52 0 -25 -21 -25 -51 0
-17 14 -35 26 -39 26 -5 0 -18 10 -29 21 -16 18 -27 20 -56 15 -20 -4 -43 -10
-51 -13 -48 -18 31 96 102 147 l49 35 110 0 c98 0 115 -3 153 -24 23 -14 42
-28 42 -31 0 -4 22 -17 49 -29 32 -15 54 -34 64 -55 15 -29 16 -6 16 318 l1
349 -57 -7 c-169 -21 -223 -27 -273 -34 -30 -4 -109 -4 -175 -1 -131 8 -239
36 -347 91 -32 16 -64 28 -70 26 -12 -4 -36 -102 -37 -150 -1 -17 4 -28 13
-28 39 0 241 -111 257 -142 6 -11 8 -31 5 -44 -7 -25 17 -84 33 -84 15 0 51
-84 51 -119 0 -35 -31 -95 -53 -104 -7 -3 -41 21 -76 52 l-63 57 15 37 c14 33
14 41 0 82 -8 25 -25 50 -37 57 -11 6 -34 22 -50 35 -17 14 -54 36 -83 48 -35
16 -53 30 -53 41 0 14 -6 12 -31 -12 -30 -28 -50 -55 -143 -194 -56 -85 -131
-173 -239 -283 -82 -82 -87 -90 -70 -103 10 -7 23 -14 29 -14 5 0 19 -8 30
-17 42 -38 81 -61 114 -68 106 -22 125 -54 86 -141 -20 -43 -30 -54 -70 -70
-25 -10 -46 -24 -46 -31 0 -15 -21 -21 -86 -28 l-50 -4 4 29 c3 19 27 54 68
97 35 37 64 73 64 79 0 6 -16 19 -35 30 -32 17 -37 17 -82 2 -55 -19 -119 -29
-127 -21 -7 7 30 27 68 37 36 9 25 20 -20 22 -26 1 -40 -5 -54 -24 -17 -20
-22 -22 -35 -12 -8 7 -14 20 -13 29 2 10 -5 17 -20 19 -28 4 -67 -32 -58 -54
9 -23 37 -29 48 -11 16 30 28 18 26 -25 -3 -41 -2 -43 27 -46 17 -2 35 -10 42
-18 16 -21 -1 -68 -33 -89 -19 -12 -24 -24 -24 -55 0 -27 -7 -47 -20 -60 -11
-11 -20 -28 -20 -37 0 -10 -9 -33 -20 -51 -17 -27 -23 -31 -39 -22 -11 5 -28
10 -39 10 -21 0 -35 31 -25 56 3 8 18 14 34 14 16 0 29 4 29 9 0 5 3 18 7 28
7 17 6 17 -11 1 -13 -14 -22 -15 -36 -8 -10 6 -29 10 -42 10 -13 0 -30 5 -38
11 -11 8 -8 9 13 4 l29 -6 -7 52 c-7 48 -6 51 11 45 15 -6 17 -5 7 5 -17 17
-16 29 2 29 19 0 9 51 -12 63 -12 7 -11 13 7 32 l21 23 -48 -5 c-26 -2 -84
-13 -128 -23 -44 -10 -95 -21 -114 -25 -18 -4 -52 -20 -75 -36 -33 -23 -54
-30 -111 -33 -38 -3 -88 -10 -110 -16 -25 -8 -128 -13 -270 -14 -180 -1 -243
-5 -290 -18 -33 -10 -86 -20 -117 -23 -35 -4 -61 -12 -66 -21 -11 -19 -117
-47 -145 -38 -12 3 -44 17 -72 29 -40 18 -74 24 -176 28 -93 4 -142 11 -190
28 -44 15 -85 22 -129 21 -40 -1 -106 9 -170 24 -163 39 -381 61 -440 44 -54
-15 -116 7 -179 66 -36 33 -68 54 -82 54 -13 0 -30 4 -37 9 -8 4 -28 5 -45 1
-19 -4 -40 -2 -52 5 -19 12 -53 21 -216 63 l-77 20 -20 -27 c-16 -20 -21 -22
-21 -9 -1 9 4 20 9 23 24 15 4 20 -83 21 -109 0 -176 24 -201 72 -10 20 -25
31 -48 36 -17 3 -64 30 -103 59 -38 29 -86 65 -106 80 -20 14 -58 32 -85 38
-27 7 -58 18 -69 25 -11 6 -31 15 -45 19 -24 7 -24 7 -7 -12 22 -25 22 -45 -2
-74 l-19 -24 -7 28 c-4 15 -4 42 -1 60 5 28 2 35 -25 52 -17 11 -42 40 -57 65
-27 48 -41 64 -98 121 -48 48 -56 100 -21 150 14 20 28 50 31 65 8 34 45 79
72 88 11 3 28 21 38 38 10 18 37 52 59 75 30 32 38 47 34 65 -17 66 -38 133
-44 139 -5 4 -26 1 -48 -8z m-249 -580 c18 -7 18 -27 1 -42 -25 -20 -73 -24
-106 -7 -36 19 -37 23 -14 49 14 15 26 17 62 12 24 -4 50 -9 57 -12z m599
-488 c0 -15 -8 -21 -29 -23 -39 -5 -56 13 -30 33 26 20 59 15 59 -10z m-251
-217 c19 -26 21 -54 4 -64 -15 -10 -38 24 -38 58 0 34 13 36 34 6z m148 -44
c-2 -10 -15 -32 -29 -48 -17 -20 -23 -38 -21 -57 3 -20 0 -29 -13 -32 -21 -6
-33 2 -48 30 -19 36 -13 53 19 59 20 4 36 18 50 41 21 36 48 40 42 7z m4138 7
c0 -6 -4 -13 -10 -16 -5 -3 -10 1 -10 9 0 9 5 16 10 16 6 0 10 -4 10 -9z
m-4185 -151 c13 7 32 9 44 5 21 -6 80 -85 116 -154 24 -47 81 -101 105 -101
22 0 35 -16 44 -52 5 -21 3 -28 -8 -28 -27 0 -108 58 -173 123 -26 26 -82 106
-98 141 -13 27 -20 34 -26 24 -8 -11 -11 -11 -18 1 -5 8 -16 11 -30 6 -30 -9
-61 3 -61 24 0 28 9 30 47 14 29 -12 41 -12 58 -3z m3915 -20 c5 0 7 -7 3 -16
-5 -13 -7 -13 -14 -2 -5 7 -8 22 -8 33 1 17 2 17 6 3 2 -10 8 -18 13 -18z
m697 -25 c22 -9 31 -19 27 -29 -4 -11 4 -16 33 -21 50 -8 83 -25 83 -42 0 -7
3 -13 8 -13 10 0 55 -69 55 -85 0 -8 4 -12 9 -9 4 3 11 -3 14 -13 3 -10 12
-31 19 -48 15 -32 12 -45 -11 -45 -8 0 -14 -7 -14 -15 0 -23 -16 -18 -54 16
-26 22 -37 41 -41 73 -5 34 -13 46 -32 55 -21 10 -28 9 -40 -6 -8 -10 -12 -13
-9 -6 7 14 -10 27 -18 14 -6 -10 13 -29 29 -29 14 -1 16 -15 5 -32 -8 -12 -13
-12 -37 6 -16 12 -43 25 -61 29 -17 3 -34 11 -37 16 -8 11 -48 12 -60 1 -6 -5
-21 -6 -35 -2 l-25 6 28 7 c42 11 33 26 -10 16 -47 -10 -57 -3 -15 12 18 6 32
15 32 21 0 6 7 8 15 5 26 -10 55 40 55 95 0 49 0 50 27 43 15 -3 42 -13 60
-20z m-757 -25 c0 -5 -4 -10 -10 -10 -5 0 -10 5 -10 10 0 6 5 10 10 10 6 0 10
-4 10 -10z m-84 -19 c-3 -5 1 -14 9 -21 17 -14 20 -40 5 -40 -12 0 -31 35 -23
44 3 3 1 6 -6 6 -7 0 -9 5 -6 10 3 6 11 10 16 10 6 0 8 -4 5 -9z m-3172 -15
c25 -12 26 -15 11 -29 -19 -19 -49 -11 -40 11 3 8 0 19 -7 24 -22 14 7 9 36
-6z m3299 -17 c-4 -15 -9 -17 -17 -9 -8 8 -7 13 4 20 8 5 16 10 17 10 0 0 -1
-9 -4 -21z m-583 -103 c0 -11 -19 -15 -25 -6 -3 5 1 10 9 10 9 0 16 -2 16 -4z
m-2824 -50 c18 -14 18 -15 2 -21 -10 -4 -18 -13 -18 -20 0 -11 -137 -105 -152
-105 -2 0 -4 18 -4 40 0 31 3 39 14 35 8 -3 24 3 34 12 11 10 23 17 27 16 3
-2 6 2 6 8 0 12 45 48 61 49 5 0 19 -6 30 -14z m3408 -41 c-4 -8 -11 -15 -16
-15 -6 0 -5 6 2 15 7 8 14 15 16 15 2 0 1 -7 -2 -15z m813 -1 c-3 -3 -12 -4
-19 -1 -8 3 -5 6 6 6 11 1 17 -2 13 -5z m21 -29 c-3 -14 -1 -25 3 -25 5 0 9
-4 9 -10 0 -16 -27 -11 -34 6 -6 15 9 54 21 54 3 0 3 -11 1 -25z m37 -5 c3 -5
1 -10 -4 -10 -6 0 -11 5 -11 10 0 6 2 10 4 10 3 0 8 -4 11 -10z m-1125 -48
c-15 -5 -41 18 -34 30 3 5 15 1 26 -9 11 -10 15 -19 8 -21z m-3152 -35 c2 -10
-3 -17 -11 -17 -16 0 -30 24 -19 34 10 10 27 1 30 -17z m3256 -2 c7 -18 -19
-45 -44 -45 -17 0 -18 4 -9 30 12 32 43 41 53 15z m-370 -16 c-4 -7 0 -9 12
-6 66 20 74 20 74 -2 0 -12 -4 -21 -10 -21 -5 0 -10 -5 -10 -10 0 -6 6 -10 13
-9 42 5 57 -2 57 -27 0 -17 -6 -28 -20 -31 -11 -3 -18 -9 -15 -13 11 -17 -19
-22 -31 -6 -11 16 -13 16 -26 -2 -7 -10 -20 -19 -28 -19 -57 -1 -136 -16 -142
-27 -5 -8 -30 -14 -68 -15 -33 -1 -80 -10 -106 -21 -25 -11 -60 -20 -77 -20
-18 0 -67 -9 -109 -19 -77 -19 -116 -18 -130 3 -5 7 -11 5 -20 -5 -10 -13 -40
-18 -143 -24 -204 -10 -247 -13 -297 -20 -32 -5 -69 -1 -115 11 -63 16 -138
19 -271 12 -45 -3 -56 0 -75 21 -12 13 -53 45 -91 72 -44 31 -62 49 -50 49 10
0 37 7 59 14 24 8 81 14 142 14 89 0 106 -2 135 -22 33 -22 33 -22 64 -4 28
16 60 19 242 22 157 3 221 8 256 20 26 9 55 16 66 16 10 0 25 7 34 15 8 8 20
15 26 15 7 0 10 -7 6 -15 -4 -11 2 -15 23 -15 16 0 32 -6 35 -12 3 -9 9 -7 21
7 13 16 19 18 35 7 14 -9 26 -9 47 -1 31 12 44 15 156 28 47 5 91 6 110 0 22
-6 33 -5 39 4 6 9 15 8 38 -5 17 -10 30 -13 30 -6 0 7 4 7 14 -1 10 -9 18 -4
37 24 16 23 32 35 47 35 14 0 21 -4 16 -11z m275 2 c28 -18 18 -37 -28 -61
-25 -14 -49 -29 -52 -33 -4 -5 -12 -8 -19 -5 -9 3 -8 9 5 22 10 9 24 15 31 12
8 -3 14 1 14 9 0 8 -5 15 -12 15 -6 0 -1 11 12 25 26 28 29 29 49 16z m-3029
-15 c0 -3 -4 -8 -10 -11 -5 -3 -10 -1 -10 4 0 6 5 11 10 11 6 0 10 -2 10 -4z
m3178 -36 c-7 -11 -21 -20 -31 -20 -26 0 -16 23 14 31 13 4 25 7 27 8 1 1 -3
-8 -10 -19z m281 -10 c11 0 25 -8 30 -17 6 -10 11 -14 11 -10 0 5 5 5 11 1 19
-12 -13 -24 -35 -13 -14 7 -12 3 7 -13 15 -13 27 -28 27 -33 0 -6 19 -23 41
-40 23 -16 47 -42 55 -57 16 -31 19 -84 4 -93 -14 -8 -53 23 -81 65 -42 60
-83 97 -136 124 -29 15 -53 33 -53 41 0 8 -5 15 -11 15 -17 0 32 37 56 42 11
2 28 1 37 -4 9 -4 26 -8 37 -8z m-4313 -111 c77 -79 121 -108 309 -202 128
-65 129 -65 102 -78 -23 -10 -40 -10 -85 -1 -66 14 -197 75 -263 123 -49 36
-205 197 -197 204 4 5 50 23 59 24 4 1 37 -31 75 -70z m1452 22 c3 -8 -1 -12
-9 -9 -7 2 -15 10 -17 17 -3 8 1 12 9 9 7 -2 15 -10 17 -17z m-60 -66 c-3 -3
-9 2 -12 12 -6 14 -5 15 5 6 7 -7 10 -15 7 -18z m621 -79 c33 -18 91 -81 91
-100 0 -16 -23 -27 -67 -32 -29 -3 -33 0 -33 22 0 21 -3 23 -19 14 -37 -19
-44 -13 -37 36 5 41 20 74 33 74 2 0 17 -7 32 -14z m-9 -150 c0 -3 -4 -8 -10
-11 -5 -3 -10 -1 -10 4 0 6 5 11 10 11 6 0 10 -2 10 -4z m-1977 -95 c23 -15
96 -59 162 -96 173 -98 220 -131 238 -167 17 -35 30 -118 18 -118 -4 0 -22 16
-41 35 -25 26 -31 38 -23 46 9 9 4 21 -18 49 -33 41 -81 75 -229 164 -93 56
-173 115 -157 116 5 0 27 -13 50 -29z m-225 -41 c49 -21 70 -50 36 -50 -30 0
-109 23 -123 36 -12 11 -12 16 -1 29 7 9 18 14 24 11 6 -2 35 -14 64 -26z
m2440 -266 c28 -4 52 -10 52 -14 0 -25 -137 -17 -163 9 -13 13 28 14 111 5z
m-151 -70 c-3 -3 -12 -4 -19 -1 -8 3 -5 6 6 6 11 1 17 -2 13 -5z m-1983 -99
c31 -14 56 -27 56 -29 0 -8 -54 11 -95 33 -54 29 -30 27 39 -4z m2146 5 c0
-12 -8 -12 -35 0 -18 8 -17 9 8 9 15 1 27 -3 27 -9z"/>
<path d="M5365 3730 c3 -5 8 -10 11 -10 2 0 4 5 4 10 0 6 -5 10 -11 10 -5 0
-7 -4 -4 -10z"/>
<path d="M5273 3675 c-55 -52 -77 -64 -147 -80 -21 -4 -26 -9 -18 -17 9 -9 8
-16 -5 -30 -24 -27 -45 -23 -37 7 11 44 -26 30 -86 -33 -30 -32 -66 -65 -79
-73 -26 -16 -26 -17 -102 53 -10 10 -20 14 -23 9 -3 -4 -18 -6 -34 -3 -16 2
-33 -1 -36 -7 -4 -6 -34 -11 -66 -11 -69 0 -87 -15 -30 -25 31 -5 50 -2 81 14
26 14 39 17 37 9 -8 -24 -53 -38 -126 -38 -53 0 -78 4 -89 16 -9 9 -22 12 -32
8 -9 -4 -38 -11 -66 -16 -27 -5 -99 -20 -160 -33 -60 -13 -135 -26 -165 -29
-80 -7 -243 -36 -255 -45 -5 -5 -40 -11 -77 -15 -85 -8 -97 -13 -91 -36 11
-41 -154 -55 -193 -16 -19 19 -38 19 -179 -5 -105 -17 -287 -22 -361 -9 -133
24 -157 23 -239 -4 -43 -14 -88 -26 -100 -26 -13 0 -46 -5 -74 -12 -47 -11
-53 -10 -71 9 -10 12 -34 24 -52 28 -18 4 -40 13 -48 20 -8 7 -42 20 -75 29
-33 9 -76 21 -95 27 -100 28 -255 48 -329 42 -71 -5 -80 -4 -117 19 -97 63
-174 153 -174 206 0 11 -16 30 -37 44 -61 40 -71 41 -100 10 -21 -23 -33 -27
-78 -27 -44 0 -61 6 -98 33 -25 17 -48 32 -51 32 -16 0 18 -42 49 -63 19 -12
35 -25 35 -29 0 -3 -14 -20 -31 -37 -18 -18 -29 -38 -25 -46 7 -18 -1 -23 -71
-41 -77 -20 -160 -84 -108 -84 8 0 15 -4 15 -8 0 -12 70 -41 95 -40 63 4 84
-3 131 -47 27 -26 58 -45 70 -45 13 0 26 -5 29 -10 4 -6 15 -8 25 -5 13 4 24
-4 40 -30 15 -24 29 -35 46 -35 17 0 24 -6 24 -20 0 -25 -7 -25 108 6 75 19
105 32 129 57 18 17 33 27 33 21 0 -13 -77 -94 -114 -120 l-30 -20 48 -35 c27
-19 51 -33 55 -32 3 0 13 -3 23 -8 10 -6 29 -3 52 6 48 20 54 19 22 -6 -14
-11 -31 -30 -37 -41 -11 -20 -10 -21 44 -15 43 6 64 3 98 -13 24 -11 60 -20
79 -20 20 0 40 -4 45 -9 6 -6 35 -12 66 -14 31 -2 62 -8 70 -13 8 -4 39 -12
69 -16 30 -5 66 -10 80 -12 27 -4 136 -49 147 -60 3 -3 24 -6 46 -6 32 0 37
-3 28 -14 -25 -30 29 -45 109 -31 22 4 51 1 80 -10 25 -9 70 -23 100 -30 48
-13 56 -12 72 2 17 15 18 14 24 -13 l6 -29 125 0 c112 0 126 -2 135 -19 7 -13
17 -17 37 -13 16 3 33 1 38 -4 6 -6 41 -12 79 -14 67 -2 131 -15 186 -36 15
-6 41 -8 58 -4 28 6 31 10 25 36 -4 16 -3 29 2 29 16 0 35 -18 30 -27 -3 -5
-2 -15 3 -23 7 -11 11 -11 24 -1 12 11 32 11 103 1 48 -7 95 -13 103 -13 24 1
134 33 140 42 6 10 40 24 60 25 10 1 17 16 21 46 7 49 12 44 9 -8 -1 -20 5
-41 16 -53 15 -17 19 -18 34 -4 9 8 41 23 72 34 50 17 59 18 84 5 40 -21 87
-14 99 14 10 22 14 23 130 22 120 -2 217 9 254 29 11 7 22 7 25 2 8 -12 77 4
87 21 5 8 -3 19 -27 32 -34 20 -46 46 -21 46 8 0 26 -13 42 -28 26 -26 30 -27
44 -13 26 26 44 68 36 83 -3 7 1 4 10 -7 9 -11 20 -20 25 -20 5 0 17 -7 27
-15 28 -23 73 -22 94 3 20 24 25 42 10 32 -5 -3 -12 -2 -15 3 -3 5 23 9 58 10
35 1 78 8 96 16 l32 13 -43 20 c-24 11 -52 23 -62 27 -17 6 -17 7 0 31 19 25
47 33 58 15 4 -6 15 -8 26 -5 11 4 19 2 19 -4 0 -6 -4 -11 -10 -11 -18 0 -11
-29 9 -40 32 -17 39 -12 47 33 5 32 8 37 14 23 4 -14 9 -16 14 -8 4 7 4 17 1
22 -3 6 3 10 14 10 25 0 27 13 6 30 -18 15 -19 37 -2 43 8 3 6 11 -9 27 l-22
22 4 -23 c5 -31 -23 -70 -36 -50 -7 12 -14 8 -34 -16 -18 -21 -32 -29 -45 -26
-19 5 -19 33 0 33 12 0 49 32 49 43 0 4 -4 6 -9 3 -5 -3 -11 3 -14 14 -3 11
-11 20 -19 20 -10 0 -10 -2 -1 -8 9 -6 9 -13 0 -32 -14 -28 -43 -38 -60 -21
-8 8 -6 11 6 11 9 0 18 3 18 8 6 35 4 53 -6 62 -9 8 -14 6 -19 -5 -3 -8 -1
-15 5 -15 5 0 -1 -12 -15 -26 -16 -17 -30 -25 -41 -20 -9 3 -14 10 -11 14 3 5
-11 7 -30 6 -19 -2 -45 1 -58 6 -17 6 -29 4 -42 -6 -17 -13 -15 -14 20 -8 l38
7 -7 -34 c-8 -39 -18 -52 -42 -55 -9 -2 -27 -5 -40 -9 -13 -3 -23 -1 -23 5 0
19 -25 10 -36 -14 -9 -20 -9 -26 2 -30 17 -6 18 -32 3 -42 -11 -6 -33 10 -35
26 -1 6 -2 14 -3 19 0 4 -12 6 -25 4 -20 -4 -24 0 -30 31 -4 20 -11 34 -16 31
-6 -3 -7 1 -4 10 5 13 9 13 22 3 13 -11 14 -11 7 1 -6 11 -4 13 8 8 13 -5 16
0 13 28 -2 26 2 35 17 39 11 3 27 -2 36 -11 14 -15 16 -14 21 8 7 30 57 36 52
7 -3 -22 8 -23 33 -4 17 12 18 16 5 32 -12 13 -12 18 -2 21 6 3 10 9 6 14 -3
5 1 9 9 9 8 0 17 -9 20 -20 6 -22 27 -27 27 -6 0 21 -43 80 -68 92 -21 10 -21
12 -5 26 23 19 63 21 63 3 0 -9 -6 -12 -15 -9 -19 8 -19 -15 0 -40 14 -19 15
-19 34 3 19 22 40 13 25 -11 -5 -7 -1 -9 12 -6 26 7 47 -17 38 -44 -5 -17 -3
-20 11 -15 9 4 21 7 26 7 14 0 10 27 -7 44 -8 9 -11 16 -6 16 11 0 9 79 -2
100 -4 8 -1 7 8 -4 15 -19 42 -13 30 6 -5 8 -1 9 12 4 34 -14 49 -12 46 7 -3
20 2 21 28 5 17 -11 22 -10 30 2 5 8 7 22 3 30 -12 30 -15 70 -5 70 6 0 10 13
9 29 -1 16 -6 27 -11 23 -5 -3 -6 2 -3 12 4 10 3 15 -3 11 -6 -3 -13 2 -16 12
-3 10 -10 26 -15 35 -12 23 -12 48 0 48 5 0 11 -6 14 -12 2 -7 8 -10 12 -6 5
4 -4 17 -19 29 -18 14 -26 28 -23 40 8 31 -9 22 -70 -36z m53 -32 c-7 -7 -26
7 -26 19 0 6 6 6 15 -2 9 -7 13 -15 11 -17z m-3849 -20 c-9 -2 -15 -9 -12 -14
9 -14 -11 -11 -23 4 -8 9 -3 12 21 13 18 1 24 -1 14 -3z m3788 -3 c3 -5 1 -10
-4 -10 -6 0 -11 5 -11 10 0 6 2 10 4 10 3 0 8 -4 11 -10z m75 -60 c-6 -11 -16
-18 -22 -14 -7 4 -6 9 3 14 10 7 10 11 0 24 -7 8 -10 20 -6 26 5 8 12 4 21 -9
11 -16 12 -26 4 -41z m-95 -31 c-10 -15 -25 -10 -19 6 4 8 10 12 15 9 5 -3 7
-10 4 -15z m-49 -16 c4 -16 8 -35 8 -43 1 -10 10 -14 26 -12 19 2 22 0 10 -8
-13 -9 -13 -10 0 -10 8 0 22 4 30 10 9 6 17 5 22 -3 13 -20 9 -30 -7 -17 -15
13 -39 5 -30 -11 8 -12 -2 -12 -25 1 -22 12 -72 98 -64 111 10 17 22 9 30 -18z
m-152 -27 c-3 -9 -10 -13 -16 -10 -5 3 -4 12 3 20 15 18 22 13 13 -10z m76
-16 c0 -5 -4 -10 -10 -10 -5 0 -10 5 -10 10 0 6 5 10 10 10 6 0 10 -4 10 -10z
m-280 -31 c0 -5 -4 -9 -10 -9 -5 0 -10 7 -10 16 0 8 5 12 10 9 6 -3 10 -10 10
-16z m-58 -11 c-7 -7 -12 -8 -12 -2 0 6 3 14 7 17 3 4 9 5 12 2 2 -3 -1 -11
-7 -17z m349 -1 c-13 -13 -26 -3 -16 12 3 6 11 8 17 5 6 -4 6 -10 -1 -17z
m249 2 c0 -5 -4 -9 -10 -9 -5 0 -10 7 -10 16 0 8 5 12 10 9 6 -3 10 -10 10
-16z m-815 -9 c10 -11 14 -20 9 -20 -5 0 -15 9 -22 20 -7 11 -11 20 -9 20 2 0
12 -9 22 -20z m150 0 c3 -5 2 -10 -4 -10 -5 0 -13 5 -16 10 -3 6 -2 10 4 10 5
0 13 -4 16 -10z m196 -17 c-12 -20 -14 -14 -5 12 4 9 9 14 11 11 3 -2 0 -13
-6 -23z m42 -15 c-2 -5 1 -8 6 -8 6 0 11 -9 11 -19 0 -13 -5 -18 -18 -14 -12
3 -17 13 -16 31 2 51 5 58 13 37 5 -11 7 -23 4 -27z m127 14 c0 -15 -2 -15
-10 -2 -13 20 -13 33 0 25 6 -3 10 -14 10 -23z m98 1 c-2 -10 -10 -18 -18 -18
-8 0 -16 8 -18 18 -2 12 3 17 18 17 15 0 20 -5 18 -17z m-794 -8 c-4 -8 -10
-12 -15 -9 -11 6 -2 24 11 24 5 0 7 -7 4 -15z m233 -1 c-3 -3 -12 -4 -19 -1
-8 3 -5 6 6 6 11 1 17 -2 13 -5z m423 -14 c0 -11 -4 -20 -10 -20 -5 0 -10 9
-10 20 0 11 5 20 10 20 6 0 10 -9 10 -20z m90 -8 c0 -15 -2 -15 -10 -2 -13 20
-13 33 0 25 6 -3 10 -14 10 -23z m72 6 c-7 -7 -12 -8 -12 -2 0 14 12 26 19 19
2 -3 -1 -11 -7 -17z m-652 8 c0 -3 -4 -8 -10 -11 -5 -3 -10 -1 -10 4 0 6 5 11
10 11 6 0 10 -2 10 -4z m333 -22 c-4 -12 -8 -13 -14 -3 -9 15 -2 32 11 24 5
-3 6 -13 3 -21z m-83 6 c0 -5 -4 -10 -10 -10 -5 0 -10 5 -10 10 0 6 5 10 10
10 6 0 10 -4 10 -10z m-2890 -8 c0 -4 -9 -8 -20 -9 -11 -1 -18 2 -15 8 7 11
35 12 35 1z m2659 -19 c10 -19 9 -22 -4 -17 -8 4 -15 15 -15 27 0 23 2 22 19
-10z m128 19 c10 -6 10 -12 -2 -28 -8 -10 -15 -14 -15 -7 0 6 -3 18 -6 27 -7
17 3 20 23 8z m-268 -31 c-15 -5 -22 6 -14 19 6 9 10 9 16 -1 5 -8 4 -15 -2
-18z m-151 -6 c-3 -3 -9 2 -12 12 -6 14 -5 15 5 6 7 -7 10 -15 7 -18z m102
-27 c0 -3 -9 -4 -21 -1 -12 4 -18 11 -15 20 3 8 6 20 6 26 1 12 29 -32 30 -45z
m-70 27 c0 -8 -2 -15 -4 -15 -2 0 -6 7 -10 15 -3 8 -1 15 4 15 6 0 10 -7 10
-15z m-2418 -7 c-9 -9 -15 -9 -24 0 -9 9 -7 12 12 12 19 0 21 -3 12 -12z
m2628 -3 c0 -8 -2 -15 -4 -15 -2 0 -6 7 -10 15 -3 8 -1 15 4 15 6 0 10 -7 10
-15z m390 5 c0 -5 -4 -10 -10 -10 -5 0 -10 5 -10 10 0 6 5 10 10 10 6 0 10 -4
10 -10z m65 -10 c3 -5 0 -10 -8 -10 -8 0 -18 -7 -21 -16 -6 -16 -26 -11 -26 7
0 6 5 7 10 4 6 -3 13 1 16 9 7 18 20 21 29 6z m-400 -29 c3 -5 1 -12 -5 -16
-5 -3 -10 1 -10 9 0 18 6 21 15 7z m99 -21 c-6 -6 -10 -2 -11 12 -2 16 1 18
10 9 7 -7 8 -14 1 -21z m66 14 c0 -8 -4 -12 -10 -9 -5 3 -10 10 -10 16 0 5 5
9 10 9 6 0 10 -7 10 -16z m321 3 c-6 -6 -6 -19 -1 -32 7 -17 5 -25 -6 -29 -9
-3 -14 1 -14 13 0 10 -7 22 -16 25 -20 8 1 32 27 32 11 0 15 -4 10 -9z m-231
-12 c14 9 4 -45 -10 -58 -12 -10 -12 -9 -1 6 11 14 11 17 -3 17 -9 0 -16 8
-16 18 0 22 13 38 18 23 2 -6 8 -9 12 -6z m-380 -5 c0 -5 -2 -10 -4 -10 -3 0
-8 5 -11 10 -3 6 -1 10 4 10 6 0 11 -4 11 -10z m178 -15 c-3 -3 -9 2 -12 12
-6 14 -5 15 5 6 7 -7 10 -15 7 -18z m72 -1 c0 -8 -5 -12 -10 -9 -6 4 -8 11 -5
16 9 14 15 11 15 -7z m210 6 c0 -5 -5 -10 -11 -10 -5 0 -7 5 -4 10 3 6 8 10
11 10 2 0 4 -4 4 -10z m80 -35 c4 -5 1 -16 -7 -24 -14 -12 -15 -12 -11 0 3 8
2 24 -3 35 -4 12 -5 25 -1 29 4 4 9 -1 11 -12 2 -10 7 -22 11 -28z m-207 -13
c7 -9 6 -11 -7 -6 -9 3 -16 10 -16 16 0 5 -6 6 -12 2 -8 -5 -7 -1 2 10 11 14
15 15 18 5 3 -8 9 -20 15 -27z m-182 -35 c-8 -8 -11 0 -10 29 1 39 1 39 11 11
7 -21 7 -32 -1 -40z m329 26 c0 -22 -15 -26 -15 -5 0 4 -4 13 -8 20 -5 8 -3
12 7 12 11 0 16 -9 16 -27z m-210 7 c0 -5 -8 -10 -17 -10 -15 0 -16 2 -3 10
19 12 20 12 20 0z m-285 -10 c3 -5 1 -10 -4 -10 -6 0 -11 5 -11 10 0 6 2 10 4
10 3 0 8 -4 11 -10z m-85 -25 c-7 -9 -15 -13 -17 -11 -7 7 7 26 19 26 6 0 6
-6 -2 -15z m320 5 c0 -5 -5 -10 -11 -10 -5 0 -7 5 -4 10 3 6 8 10 11 10 2 0 4
-4 4 -10z m134 -25 c5 -22 4 -26 -4 -15 -5 8 -10 24 -10 34 0 26 6 18 14 -19z
m33 3 c-3 -7 -5 -2 -5 12 0 14 2 19 5 13 2 -7 2 -19 0 -25z m-377 12 c0 -5 -5
-10 -11 -10 -5 0 -7 5 -4 10 3 6 8 10 11 10 2 0 4 -4 4 -10z m-400 -82 c0 -26
-18 -31 -30 -9 -6 12 -6 22 0 26 5 3 6 13 3 23 -4 13 -2 13 10 -3 9 -11 17
-28 17 -37z m700 48 c0 -2 -8 -10 -17 -17 -16 -13 -17 -12 -4 4 13 16 21 21
21 13z m24 -22 c3 -8 2 -12 -4 -9 -6 3 -10 10 -10 16 0 14 7 11 14 -7z m-904
-15 c0 -11 -4 -18 -10 -14 -5 3 -7 12 -3 20 7 21 13 19 13 -6z m540 11 c0 -5
-2 -10 -4 -10 -3 0 -8 5 -11 10 -3 6 -1 10 4 10 6 0 11 -4 11 -10z m-230 -8
c0 -5 -12 -19 -26 -33 l-26 -24 19 32 c17 31 33 43 33 25z m634 -69 c-18 -18
-29 -16 -14 2 7 8 9 22 6 31 -3 9 -3 21 1 27 5 7 10 0 13 -18 3 -17 0 -35 -6
-42z m-848 12 c10 -26 -1 -35 -13 -10 -6 14 -7 25 -2 25 5 0 12 -7 15 -15z
m-189 -17 c-3 -8 -6 -5 -6 6 -1 11 2 17 5 13 3 -3 4 -12 1 -19z m413 -7 c0
-17 5 -33 10 -36 18 -11 11 -23 -10 -18 -11 3 -20 14 -20 24 0 11 -4 19 -10
19 -14 0 -12 27 3 33 23 10 27 7 27 -22z m75 0 c3 -5 1 -12 -5 -16 -5 -3 -10
1 -10 9 0 18 6 21 15 7z m369 3 c18 -7 22 -48 4 -42 -6 2 -15 14 -19 26 -9 24
-8 25 15 16z m146 -4 c0 -5 -2 -10 -4 -10 -3 0 -8 5 -11 10 -3 6 -1 10 4 10 6
0 11 -4 11 -10z m-370 -42 c0 -10 -4 -18 -10 -18 -5 0 -10 15 -10 33 0 24 3
28 10 17 5 -8 10 -23 10 -32z m-641 2 c6 0 11 7 11 15 0 8 5 15 11 15 6 0 8
-20 5 -55 -4 -46 -2 -55 11 -55 14 0 14 -2 -3 -15 -10 -8 -14 -15 -9 -15 6 -1
-10 -8 -35 -15 -71 -22 -129 2 -114 47 4 13 7 29 5 36 -2 10 2 11 19 2 24 -13
41 -5 34 14 -3 7 2 16 10 19 9 4 16 14 16 24 1 17 1 17 14 1 7 -10 18 -18 25
-18z m1051 5 c0 -8 -7 -15 -16 -15 -14 0 -14 3 -4 15 7 8 14 15 16 15 2 0 4
-7 4 -15z m-750 -14 c13 -25 13 -51 0 -51 -5 0 -10 10 -10 23 0 13 -5 28 -12
35 -9 9 -9 12 0 12 6 0 16 -9 22 -19z m90 -2 c0 -5 -4 -9 -10 -9 -5 0 -10 7
-10 16 0 8 5 12 10 9 6 -3 10 -10 10 -16z m280 17 c0 -3 -4 -8 -10 -11 -5 -3
-10 -1 -10 4 0 6 5 11 10 11 6 0 10 -2 10 -4z m-165 -25 c-3 -11 -1 -22 5 -26
5 -3 10 -1 10 4 0 6 4 11 9 11 4 0 3 -18 -2 -40 -11 -39 -27 -54 -27 -25 0 8
-9 15 -20 15 -24 0 -26 26 -4 58 19 27 38 29 29 3z m198 -22 c7 -1 15 -1 20 0
4 0 7 -6 7 -14 0 -9 -6 -12 -16 -8 -13 5 -15 1 -10 -18 3 -15 0 -12 -9 9 -10
22 -22 32 -38 33 -15 0 -17 2 -7 6 8 3 19 13 25 22 8 14 10 13 13 -6 2 -13 9
-24 15 -24z m67 24 c-11 -8 -25 -11 -30 -8 -18 11 -10 20 20 21 29 1 29 1 10
-13z m460 -27 c0 -8 -6 -16 -14 -19 -10 -4 -12 0 -9 14 6 22 23 26 23 5z
m-1670 -22 c0 -17 -26 -40 -41 -37 -18 5 -34 32 -24 41 3 3 5 0 5 -6 0 -7 5
-12 10 -12 6 0 10 6 10 14 0 9 7 12 20 9 11 -3 20 -7 20 -9z m619 -29 c14 -8
14 -45 1 -45 -5 0 -10 12 -10 26 0 19 -4 25 -15 20 -16 -6 -19 3 -8 30 6 16 7
15 14 -3 4 -12 12 -24 18 -28z m-27 -77 c-7 -7 -12 -8 -12 -2 0 6 3 14 7 17 3
4 9 5 12 2 2 -3 -1 -11 -7 -17z m-162 -98 c0 -5 -4 -10 -10 -10 -5 0 -10 5
-10 10 0 6 5 10 10 10 6 0 10 -4 10 -10z"/>
<path d="M5795 3720 c-3 -6 1 -13 10 -16 10 -4 15 -14 12 -25 -4 -14 0 -19 13
-19 10 0 20 -5 22 -12 7 -19 28 1 28 27 0 38 -67 74 -85 45z"/>
<path d="M5770 3566 c0 -25 12 -46 26 -46 17 0 17 1 4 34 -10 28 -30 35 -30
12z"/>
<path d="M5430 3513 c0 -13 -4 -23 -10 -23 -19 0 -10 -15 26 -44 29 -23 38
-26 45 -15 13 21 11 30 -8 27 -15 -3 -17 4 -15 37 3 35 1 41 -17 41 -15 0 -21
-7 -21 -23z"/>
<path d="M5550 3512 c0 -12 7 -25 15 -28 8 -4 15 -15 15 -25 0 -10 3 -19 8
-20 4 0 15 -2 25 -4 26 -5 21 7 -23 56 -35 39 -40 41 -40 21z"/>
<path d="M5705 3510 c3 -5 8 -10 11 -10 2 0 4 5 4 10 0 6 -5 10 -11 10 -5 0
-7 -4 -4 -10z"/>
<path d="M5750 3505 c0 -9 9 -15 21 -15 18 0 19 2 9 15 -7 8 -16 15 -21 15 -5
0 -9 -7 -9 -15z"/>
<path d="M5675 3500 c3 -5 8 -10 11 -10 2 0 4 5 4 10 0 6 -5 10 -11 10 -5 0
-7 -4 -4 -10z"/>
<path d="M5655 3450 c-3 -5 1 -10 10 -10 9 0 13 5 10 10 -3 6 -8 10 -10 10 -2
0 -7 -4 -10 -10z"/>
<path d="M5710 3425 c0 -8 5 -15 10 -15 6 0 10 7 10 15 0 8 -4 15 -10 15 -5 0
-10 -7 -10 -15z"/>
<path d="M5434 3395 c-4 -8 -12 -15 -20 -15 -8 0 -14 -7 -14 -15 0 -8 5 -15
10 -15 6 0 10 -9 10 -20 0 -22 5 -25 23 -10 7 6 20 17 31 24 15 10 16 16 8 33
-15 27 -41 37 -48 18z"/>
<path d="M5575 3380 c-4 -6 -1 -19 6 -28 12 -15 12 -15 -7 1 -11 9 -22 17 -25
17 -2 0 -4 -20 -4 -44 0 -28 3 -40 8 -33 7 9 10 9 14 0 8 -21 30 -15 38 10 6
19 8 20 12 4 3 -10 -1 -24 -7 -32 -10 -12 -10 -15 1 -15 8 0 22 16 31 35 16
31 16 36 2 47 -8 7 -24 21 -35 31 -22 20 -26 21 -34 7z"/>
<path d="M5670 3324 c0 -10 7 -14 22 -12 32 5 35 28 4 28 -17 0 -26 -5 -26
-16z"/>
<path d="M5495 3290 c6 -37 5 -43 -6 -32 -15 14 -39 16 -39 3 0 -5 15 -15 33
-21 24 -10 27 -14 15 -17 -10 -3 -19 -11 -19 -19 -1 -8 -2 -20 -3 -26 -1 -7
-5 -16 -9 -19 -4 -3 -1 -17 6 -32 13 -26 14 -26 33 -8 11 9 25 16 32 13 6 -2
12 1 12 7 0 6 -4 11 -10 11 -5 0 -14 10 -21 21 -6 12 -7 19 -1 15 14 -8 47 32
47 59 1 18 -3 22 -14 15 -24 -13 -45 15 -30 41 8 17 8 20 -1 14 -7 -4 -16 -1
-22 6 -6 9 -7 -2 -3 -31z"/>
<path d="M3515 3310 c-3 -5 3 -10 14 -10 12 0 21 5 21 10 0 6 -6 10 -14 10 -8
0 -18 -4 -21 -10z"/>
<path d="M5349 3297 c6 -8 8 -17 4 -20 -3 -4 2 -7 13 -7 10 0 27 -12 37 -25
17 -24 17 -25 0 -25 -10 0 -26 -9 -36 -20 -14 -17 -14 -20 -2 -20 8 0 15 4 15
9 0 14 43 21 57 9 10 -8 13 -6 13 8 0 25 -7 33 -56 72 -43 33 -65 42 -45 19z"/>
<path d="M5720 3291 c0 -6 5 -13 10 -16 6 -3 10 1 10 9 0 9 -4 16 -10 16 -5 0
-10 -4 -10 -9z"/>
<path d="M5670 3259 c0 -11 5 -17 10 -14 6 3 10 13 10 21 0 8 -4 14 -10 14 -5
0 -10 -9 -10 -21z"/>
<path d="M5635 3230 c3 -5 11 -10 16 -10 6 0 7 5 4 10 -3 6 -11 10 -16 10 -6
0 -7 -4 -4 -10z"/>
<path d="M5575 3130 c3 -5 8 -10 11 -10 2 0 4 5 4 10 0 6 -5 10 -11 10 -5 0
-7 -4 -4 -10z"/>
<path d="M4996 3111 c-4 -7 -5 -15 -2 -18 9 -9 19 4 14 18 -4 11 -6 11 -12 0z"/>
<path d="M1738 2833 c7 -3 16 -2 19 1 4 3 -2 6 -13 5 -11 0 -14 -3 -6 -6z"/>
<path d="M5405 2766 c-21 -15 -12 -36 16 -36 12 0 19 7 19 19 0 27 -13 33 -35
17z"/>
<path d="M5210 2450 c-8 -5 -12 -12 -9 -15 8 -8 39 5 39 16 0 11 -11 11 -30
-1z"/>
<path d="M5230 2280 c0 -5 5 -10 10 -10 6 0 10 5 10 10 0 6 -4 10 -10 10 -5 0
-10 -4 -10 -10z"/>
<path d="M6890 2130 c0 -5 4 -10 9 -10 6 0 13 5 16 10 3 6 -1 10 -9 10 -9 0
-16 -4 -16 -10z"/>
<path d="M6755 2060 c-7 -12 2 -12 30 0 19 8 19 9 -2 9 -12 1 -25 -3 -28 -9z"/>
<path d="M6536 2033 c-9 -22 0 -28 26 -16 l23 10 -22 11 c-17 10 -22 9 -27 -5z"/>
<path d="M3915 1240 c-3 -5 3 -10 15 -10 12 0 18 5 15 10 -3 6 -10 10 -15 10
-5 0 -12 -4 -15 -10z"/>
<path d="M0 560 l0 -560 3500 0 3500 0 0 480 0 479 -97 -35 c-271 -99 -545
-184 -748 -234 -71 -17 -173 -42 -225 -55 -227 -57 -580 -118 -805 -140 -88
-8 -203 -19 -255 -25 -325 -35 -540 -50 -955 -66 -328 -13 -911 15 -1465 72
-333 33 -860 133 -1295 245 -359 92 -912 281 -1095 374 -27 14 -52 25 -55 25
-3 0 -5 -252 -5 -560z"/>
</g>
</svg>
